<svg xmlns="http://www.w3.org/2000/svg" width="125.22" height="135.769" viewBox="0 0 125.22 135.769">
  <path id="排除_1" data-name="排除 1" d="M-1962.762-1024.232a173.828,173.828,0,0,1-21.237-1.294v-133.18a173.862,173.862,0,0,1,21.237-1.294,169.02,169.02,0,0,1,34.924,3.578,139.561,139.561,0,0,1,30.215,9.949A99.319,99.319,0,0,1-1874-1131.33a63.064,63.064,0,0,1,15.141,19.162c-5.255,2.182-12.884,5.523-19.387,9.05-7.959,4.317-12,7.708-12,10.08s4.055,5.99,12.051,10.739c6.5,3.862,14.147,7.607,19.413,10.068a62.864,62.864,0,0,1-15.106,19.222,99.071,99.071,0,0,1-23.63,15.2,139.438,139.438,0,0,1-30.258,9.987A168.987,168.987,0,0,1-1962.762-1024.232Zm13.919-101.884a17.879,17.879,0,0,0-12.728,5.272,17.882,17.882,0,0,0-5.272,12.728,17.882,17.882,0,0,0,5.272,12.728,17.879,17.879,0,0,0,12.728,5.272,17.879,17.879,0,0,0,12.728-5.272,17.879,17.879,0,0,0,5.272-12.728,17.879,17.879,0,0,0-5.272-12.728A17.879,17.879,0,0,0-1948.843-1126.116Zm0,31a13.272,13.272,0,0,1-13-13.5,13.272,13.272,0,0,1,13-13.5,13.272,13.272,0,0,1,13,13.5A13.272,13.272,0,0,1-1948.843-1095.115Z" transform="translate(1984 1160)" fill="#00af54"/>
</svg>
