<svg xmlns="http://www.w3.org/2000/svg" width="71" height="111" viewBox="0 0 71 111">
  <path id="鱼尾" d="M.083,108.674Q0,107.146,0,105.6A55.541,55.541,0,0,1,30.356,55.991,55.541,55.541,0,0,1,0,6.385Q0,4.328.146,2.307A54.7,54.7,0,0,1,15.914,0,55.27,55.27,0,0,1,70.93,52.687l0,.038v.022q.054,1.1.064,2.213v0q0,.042,0,.084v.01q0,.038,0,.076v.027c0,.021,0,.042,0,.063s0,.023,0,.034,0,.038,0,.058,0,.031,0,.046,0,.03,0,.045c0,.032,0,.061,0,.093s0,.076,0,.113c0,.011,0,.023,0,.034,0,.032,0,.06,0,.091,0,.008,0,.016,0,.024,0,.037,0,.074,0,.112v.031c0,.03,0,.055,0,.085v.034c0,.035,0,.074,0,.11v.026c0,.03,0,.06,0,.09v.035c0,.035,0,.068,0,.1v.025c0,.032,0,.062,0,.093v.04c0,.028,0,.055,0,.083v.032c0,.034,0,.072,0,.105v.042l0,.073v.041c0,.033,0,.068,0,.1v.05l0,.061,0,.055,0,.061,0,.093v.046l0,.066v.04q0,.067,0,.134v.019l0,.076v.022q-.005.127-.011.253v0q-.035.791-.091,1.576h0A55.261,55.261,0,0,1,15.914,111,54.708,54.708,0,0,1,.083,108.674Z" fill="#00af54"/>
</svg>
